<svg width="18" height="20" viewBox="0 0 18 20" fill="none" xmlns="http://www.w3.org/2000/svg">
<path d="M1.20847 16.1078L0.461851 16.0355L1.20847 16.1078ZM16.7914 16.1078L17.538 16.0355L16.7914 16.1078ZM14.8004 17.5715C14.3862 17.5715 14.0504 17.9129 14.0504 18.334C14.0504 18.7551 14.3862 19.0965 14.8004 19.0965V17.5715ZM16.0295 7.97422L15.2828 8.04651L16.0295 7.97422ZM1.97037 7.97422L2.71699 8.04651L1.97037 7.97422ZM4.24993 9.1837C4.24993 9.60482 4.58572 9.94622 4.99993 9.94622C5.41415 9.94622 5.74993 9.60482 5.74993 9.1837H4.24993ZM12.2499 9.1837C12.2499 9.60482 12.5857 9.94622 12.9999 9.94622C13.4141 9.94622 13.7499 9.60482 13.7499 9.1837H12.2499ZM4.99993 6.89613C5.41415 6.89613 5.74993 6.55473 5.74993 6.13361C5.74993 5.71248 5.41415 5.37109 4.99993 5.37109V6.89613ZM8.99994 5.37109C8.58574 5.37109 8.24994 5.71248 8.24994 6.13361C8.24994 6.55473 8.58574 6.89613 8.99994 6.89613V5.37109ZM9.99994 19.0965C10.4141 19.0965 10.7499 18.7551 10.7499 18.334C10.7499 17.9129 10.4141 17.5715 9.99994 17.5715V19.0965ZM15.2828 8.04651L16.0447 16.1801L17.538 16.0355L16.7761 7.90193L15.2828 8.04651ZM1.95509 16.1801L2.71699 8.04651L1.22375 7.90193L0.461851 16.0355L1.95509 16.1801ZM3.19946 17.5715C2.46228 17.5715 1.8852 16.9262 1.95509 16.1801L0.461851 16.0355C0.308091 17.677 1.57767 19.0965 3.19946 19.0965V17.5715ZM16.0447 16.1801C16.1146 16.9262 15.5375 17.5715 14.8004 17.5715V19.0965C16.4222 19.0965 17.6917 17.677 17.538 16.0355L16.0447 16.1801ZM14.0385 6.89613C14.6829 6.89613 15.2217 7.39425 15.2828 8.04651L16.7761 7.90193C16.6417 6.46696 15.4562 5.37109 14.0385 5.37109V6.89613ZM3.96136 5.37109C2.54358 5.37109 1.35817 6.46696 1.22375 7.90193L2.71699 8.04651C2.77809 7.39425 3.31692 6.89613 3.96136 6.89613V5.37109ZM5.74993 5.11691C5.74993 3.29201 7.20504 1.81264 8.99994 1.81264V0.287598C6.37658 0.287598 4.24993 2.44976 4.24993 5.11691H5.74993ZM8.99994 1.81264C10.7948 1.81264 12.2499 3.29201 12.2499 5.11691H13.7499C13.7499 2.44976 11.6232 0.287598 8.99994 0.287598V1.81264ZM4.24993 5.11691V9.1837H5.74993V5.11691H4.24993ZM12.2499 5.11691V9.1837H13.7499V5.11691H12.2499ZM3.96136 6.89613H4.99993V5.37109H3.96136V6.89613ZM8.99994 6.89613H14.0385V5.37109H8.99994V6.89613ZM9.99994 17.5715H3.19946V19.0965H9.99994V17.5715Z" fill="white"/>
</svg>
